HIERARCHY
ROOT hip
{
  OFFSET 0 90.174 2.4664
  CHANNELS 6 Xposition Yposition Zposition Zrotation Xrotation Yrotation
  JOINT abdomen
  {
    OFFSET 0 -1.186 -1.5018
    CHANNELS 6 Xposition Yposition Zposition Zrotation Xrotation Yrotation
    JOINT abdomen2
    {
      OFFSET 0 9.964 0.2134
      CHANNELS 6 Xposition Yposition Zposition Zrotation Xrotation Yrotation
      JOINT chest
      {
        OFFSET 0 13.134 -3.2573
        CHANNELS 6 Xposition Yposition Zposition Zrotation Xrotation Yrotation
        JOINT neck
        {
          OFFSET 0 20.686 -1.6905
          CHANNELS 6 Xposition Yposition Zposition Zrotation Xrotation Yrotation
          JOINT head
          {
            OFFSET 0 7.238 -0.1237
            CHANNELS 6 Xposition Yposition Zposition Zrotation Xrotation Yrotation
            End Site
            {
              OFFSET 0 0 0
            }
          }
        }
        JOINT lCollar
        {
          OFFSET 1.7069 20.075 5.0056
          CHANNELS 6 Xposition Yposition Zposition Zrotation Xrotation Yrotation
          JOINT lShldr
          {
            OFFSET 13.6458 -0.047 -4.849
            CHANNELS 6 Xposition Yposition Zposition Zrotation Xrotation Yrotation
            JOINT lForeArm
            {
              OFFSET 28.3255 -0.9759 2.2888
              CHANNELS 6 Xposition Yposition Zposition Zrotation Xrotation Yrotation
              JOINT lHand
              {
                OFFSET 22.1583 -0.53 10.8316
                CHANNELS 6 Xposition Yposition Zposition Zrotation Xrotation Yrotation
                JOINT lThumb1
                {
                  OFFSET 0.786 0.112 2.5817
                  CHANNELS 6 Xposition Yposition Zposition Zrotation Xrotation Yrotation
                  JOINT lThumb2
                  {
                    OFFSET 0.3601 -0.878 4.2331
                    CHANNELS 6 Xposition Yposition Zposition Zrotation Xrotation Yrotation
                    JOINT lThumb2_End
                    {
                      OFFSET 1.8127 -1.216 2.2227
                      CHANNELS 6 Xposition Yposition Zposition Zrotation Xrotation Yrotation
                      End Site
                      {
                        OFFSET 0.0181 -0.0122 0.0222
                      }
                    }
                  }
                }
                JOINT lCarpal1
                {
                  OFFSET 0.9571 1.114 1.7695
                  CHANNELS 6 Xposition Yposition Zposition Zrotation Xrotation Yrotation
                  JOINT lIndex1
                  {
                    OFFSET 4.1246 0.487 4.1451
                    CHANNELS 6 Xposition Yposition Zposition Zrotation Xrotation Yrotation
                    JOINT lIndex2
                    {
                      OFFSET 3.4052 -1.454 2.7682
                      CHANNELS 6 Xposition Yposition Zposition Zrotation Xrotation Yrotation
                      JOINT lIndex2_End
                      {
                        OFFSET 1.4531 -1.795 1.2713
                        CHANNELS 6 Xposition Yposition Zposition Zrotation Xrotation Yrotation
                        End Site
                        {
                          OFFSET 0.0145 -0.0179 0.0127
                        }
                      }
                    }
                  }
                  JOINT lMid1
                  {
                    OFFSET 5.6954 0.21 2.1184
                    CHANNELS 6 Xposition Yposition Zposition Zrotation Xrotation Yrotation
                    JOINT lMid2
                    {
                      OFFSET 3.9766 -1.54 2.3863
                      CHANNELS 6 Xposition Yposition Zposition Zrotation Xrotation Yrotation
                      JOINT lMid2_End
                      {
                        OFFSET 1.4042 -1.926 1.125
                        CHANNELS 6 Xposition Yposition Zposition Zrotation Xrotation Yrotation
                        End Site
                        {
                          OFFSET 0.014 -0.0193 0.0113
                        }
                      }
                    }
                  }
                }
                JOINT lCarpal2
                {
                  OFFSET 2.0956 0.66 -0.3894
                  CHANNELS 6 Xposition Yposition Zposition Zrotation Xrotation Yrotation
                  JOINT lRing1
                  {
                    OFFSET 5.0395 -0.09 2.4971
                    CHANNELS 6 Xposition Yposition Zposition Zrotation Xrotation Yrotation
                    JOINT lRing2
                    {
                      OFFSET 3.7921 -1.552 1.4806
                      CHANNELS 6 Xposition Yposition Zposition Zrotation Xrotation Yrotation
                      JOINT lRing2_End
                      {
                        OFFSET 1.4655 -1.808 0.9609
                        CHANNELS 6 Xposition Yposition Zposition Zrotation Xrotation Yrotation
                        End Site
                        {
                          OFFSET 0.0147 -0.0181 0.0096
                        }
                      }
                    }
                  }
                  JOINT lPinky1
                  {
                    OFFSET 4.9141 -1.269 0.3591
                    CHANNELS 6 Xposition Yposition Zposition Zrotation Xrotation Yrotation
                    JOINT lPinky2
                    {
                      OFFSET 3.1477 -1.685 0.8462
                      CHANNELS 6 Xposition Yposition Zposition Zrotation Xrotation Yrotation
                      JOINT lPinky2_End
                      {
                        OFFSET 0.8055 -1.585 0.7955
                        CHANNELS 6 Xposition Yposition Zposition Zrotation Xrotation Yrotation
                        End Site
                        {
                          OFFSET 0.0081 -0.0158 0.008
                        }
                      }
                    }
                  }
                }
              }
            }
          }
        }
        JOINT rCollar
        {
          OFFSET -1.7069 20.075 5.0056
          CHANNELS 6 Xposition Yposition Zposition Zrotation Xrotation Yrotation
          JOINT rShldr
          {
            OFFSET -13.6458 -0.047 -4.849
            CHANNELS 6 Xposition Yposition Zposition Zrotation Xrotation Yrotation
            JOINT rForeArm
            {
              OFFSET -28.3255 -0.9759 2.2888
              CHANNELS 6 Xposition Yposition Zposition Zrotation Xrotation Yrotation
              JOINT rHand
              {
                OFFSET -22.1583 -0.53 10.8316
                CHANNELS 6 Xposition Yposition Zposition Zrotation Xrotation Yrotation
                JOINT rThumb1
                {
                  OFFSET -0.786 0.112 2.5817
                  CHANNELS 6 Xposition Yposition Zposition Zrotation Xrotation Yrotation
                  JOINT rThumb2
                  {
                    OFFSET -0.3601 -0.878 4.2331
                    CHANNELS 6 Xposition Yposition Zposition Zrotation Xrotation Yrotation
                    JOINT rThumb2_End
                    {
                      OFFSET -1.8127 -1.216 2.2227
                      CHANNELS 6 Xposition Yposition Zposition Zrotation Xrotation Yrotation
                      End Site
                      {
                        OFFSET -0.0181 -0.0122 0.0222
                      }
                    }
                  }
                }
                JOINT rCarpal1
                {
                  OFFSET -0.9571 1.114 1.7695
                  CHANNELS 6 Xposition Yposition Zposition Zrotation Xrotation Yrotation
                  JOINT rIndex1
                  {
                    OFFSET -4.1246 0.487 4.1451
                    CHANNELS 6 Xposition Yposition Zposition Zrotation Xrotation Yrotation
                    JOINT rIndex2
                    {
                      OFFSET -3.4052 -1.454 2.7682
                      CHANNELS 6 Xposition Yposition Zposition Zrotation Xrotation Yrotation
                      JOINT rIndex2_End
                      {
                        OFFSET -1.4531 -1.795 1.2713
                        CHANNELS 6 Xposition Yposition Zposition Zrotation Xrotation Yrotation
                        End Site
                        {
                          OFFSET -0.0145 -0.018 0.0127
                        }
                      }
                    }
                  }
                  JOINT rMid1
                  {
                    OFFSET -5.6954 0.21 2.1184
                    CHANNELS 6 Xposition Yposition Zposition Zrotation Xrotation Yrotation
                    JOINT rMid2
                    {
                      OFFSET -3.9766 -1.54 2.3863
                      CHANNELS 6 Xposition Yposition Zposition Zrotation Xrotation Yrotation
                      JOINT rMid2_End
                      {
                        OFFSET -1.4042 -1.926 1.125
                        CHANNELS 6 Xposition Yposition Zposition Zrotation Xrotation Yrotation
                        End Site
                        {
                          OFFSET -0.014 -0.0193 0.0113
                        }
                      }
                    }
                  }
                }
                JOINT rCarpal2
                {
                  OFFSET -2.0956 0.66 -0.3894
                  CHANNELS 6 Xposition Yposition Zposition Zrotation Xrotation Yrotation
                  JOINT rRing1
                  {
                    OFFSET -5.0395 -0.09 2.4971
                    CHANNELS 6 Xposition Yposition Zposition Zrotation Xrotation Yrotation
                    JOINT rRing2
                    {
                      OFFSET -3.7921 -1.552 1.4806
                      CHANNELS 6 Xposition Yposition Zposition Zrotation Xrotation Yrotation
                      JOINT rRing2_End
                      {
                        OFFSET -1.4655 -1.808 0.9609
                        CHANNELS 6 Xposition Yposition Zposition Zrotation Xrotation Yrotation
                        End Site
                        {
                          OFFSET -0.0147 -0.0181 0.0096
                        }
                      }
                    }
                  }
                  JOINT rPinky1
                  {
                    OFFSET -4.9141 -1.269 0.3592
                    CHANNELS 6 Xposition Yposition Zposition Zrotation Xrotation Yrotation
                    JOINT rPinky2
                    {
                      OFFSET -3.1477 -1.685 0.8462
                      CHANNELS 6 Xposition Yposition Zposition Zrotation Xrotation Yrotation
                      JOINT rPinky2_End
                      {
                        OFFSET -0.8055 -1.585 0.7955
                        CHANNELS 6 Xposition Yposition Zposition Zrotation Xrotation Yrotation
                        End Site
                        {
                          OFFSET -0.0081 -0.0158 0.008
                        }
                      }
                    }
                  }
                }
              }
            }
          }
        }
      }
    }
  }
  JOINT lThigh
  {
    OFFSET 8.367 -8.2066 0.5982
    CHANNELS 6 Xposition Yposition Zposition Zrotation Xrotation Yrotation
    JOINT lShin
    {
      OFFSET 2.1923 -43.463 -0.4932
      CHANNELS 6 Xposition Yposition Zposition Zrotation Xrotation Yrotation
      JOINT lFoot
      {
        OFFSET 0.7333 -45.8593 -2.6451
        CHANNELS 6 Xposition Yposition Zposition Zrotation Xrotation Yrotation
        End Site
        {
          OFFSET 2.6618 -4.2699 12.3931
        }
      }
    }
  }
  JOINT rThigh
  {
    OFFSET -8.367 -8.2066 0.5982
    CHANNELS 6 Xposition Yposition Zposition Zrotation Xrotation Yrotation
    JOINT rShin
    {
      OFFSET -2.1923 -43.463 -0.4931
      CHANNELS 6 Xposition Yposition Zposition Zrotation Xrotation Yrotation
      JOINT rFoot
      {
        OFFSET -0.7333 -45.8593 -2.6451
        CHANNELS 6 Xposition Yposition Zposition Zrotation Xrotation Yrotation
        End Site
        {
          OFFSET -2.6618 -4.2699 12.3931
        }
      }
    }
  }
}
MOTION
Frames:	4
Frame Time:	0.0333333
-47.8171 32.2977 22.098 -42.0002 -0.000282455 96.995 3.55271e-015 -1.186 -1.5018 -0.564672 8.48884 -0.286749 0 9.964 0.2134 -1.10436 16.98 -0.496107 -3.55271e-015 13.134 -3.2573 -1.10436 16.98 -0.496115 0 20.686 -1.6905 -16.7602 -43.8497 13.2146 -1.77636e-015 7.238 -0.1237 1.50045e-006 9.01981 -5.33998e-006 1.7069 20.075 5.0056 -8.42849 -4.96777 29.387 13.6458 -0.047 -4.849 -100.074 5.62101 -53.2473 28.3255 -0.9759 2.2888 -42.0318 17.4252 -60.4015 22.1583 -0.53 10.8316 -31.0129 -34.5957 8.21481 0.786 0.112 2.5817 -0 -3.18055e-015 -0 0.3601 -0.878 4.2331 -1.76556e-031 -3.18055e-015 -3.18055e-015 1.8127 -1.216 2.2227 -4.77083e-015 -6.36111e-015 9.54166e-015 0.9571 1.114 1.7695 -1.59028e-015 0 -0 4.1246 0.487 4.1451 -4.77083e-015 -3.18055e-015 -0 3.4052 -1.454 2.7682 -3.18055e-015 -3.18055e-015 3.18055e-015 1.4531 -1.795 1.2713 4.77083e-015 -3.18055e-015 -3.18055e-015 5.6954 0.21 2.1184 -4.77083e-015 -3.18055e-015 -0 3.9766 -1.54 2.3863 -3.18055e-015 -3.18055e-015 3.18055e-015 1.4042 -1.926 1.125 4.77083e-015 -3.18055e-015 -3.18055e-015 2.0956 0.66 -0.3894 -1.59028e-015 0 -0 5.0395 -0.09 2.4971 -4.77083e-015 -3.18055e-015 -0 3.7921 -1.552 1.4806 -3.18055e-015 -3.18055e-015 3.18055e-015 1.4655 -1.808 0.9609 4.77083e-015 -3.18055e-015 -3.18055e-015 4.9141 -1.269 0.3591 -4.77083e-015 -3.18055e-015 -0 3.1477 -1.685 0.8462 -3.18055e-015 -3.18055e-015 3.18055e-015 0.8055 -1.585 0.7955 4.77083e-015 -3.18055e-015 -3.18055e-015 -1.7069 20.075 5.0056 -36.9042 -1.70543 4.52893 -13.6458 -0.047 -4.849 -2.7806 -22.2916 70.3636 -28.3255 -0.9759 2.2888 123.864 -53.2898 103.478 -22.1583 -0.53 10.8316 -25.5807 -2.55862 -7.14384 -0.786 0.112 2.5817 -0 0 9.93923e-016 -0.3601 -0.878 4.2331 1.98785e-016 0 5.96354e-016 -1.8127 -1.216 2.2227 5.96354e-016 0 7.95139e-016 -0.9571 1.114 1.7695 -1.98785e-016 0 7.95139e-016 -4.1246 0.487 4.1451 2.38542e-015 0 1.59028e-015 -3.4052 -1.454 2.7682 5.96354e-016 0 7.95139e-016 -1.4531 -1.795 1.2713 7.95139e-016 3.18055e-015 1.2921e-015 -5.6954 0.21 2.1184 2.38542e-015 0 1.59028e-015 -3.9766 -1.54 2.3863 5.96354e-016 0 7.95139e-016 -1.4042 -1.926 1.125 7.95139e-016 3.18055e-015 1.2921e-015 -2.0956 0.66 -0.3894 -1.98785e-016 0 7.95139e-016 -5.0395 -0.09 2.4971 2.38542e-015 0 1.59028e-015 -3.7921 -1.552 1.4806 5.96354e-016 0 7.95139e-016 -1.4655 -1.808 0.9609 7.95139e-016 3.18055e-015 1.2921e-015 -4.9141 -1.269 0.3592 2.38542e-015 0 1.59028e-015 -3.1477 -1.685 0.8462 5.96354e-016 0 7.95139e-016 -0.8055 -1.585 0.7955 7.95139e-016 3.18055e-015 1.2921e-015 8.367 -8.2066 0.5982 47.1883 -88.8043 62.9571 2.1923 -43.463 -0.4932 172.32 47.068 -168.116 0.7333 -45.8593 -2.6451 20.0806 65.7959 3.75828 -8.367 -8.2066 0.5982 -168.24 -85.764 -179.577 -2.1923 -43.463 -0.4931 -171.779 46.0421 166.643 -0.7333 -45.8593 -2.6451 14.8941 69.4238 -22.8913 
-47.8171 32.2977 22.098 -42.0002 -0.000282455 96.995 3.55271e-015 -1.186 -1.5018 -0.56345 8.41802 -0.282881 1.77636e-015 9.964 0.2134 -1.10255 16.8384 -0.489025 1.77636e-015 13.134 -3.2573 -1.10255 16.8384 -0.489027 1.77636e-015 20.686 -1.6905 -16.6017 -43.2958 13.4441 1.77636e-015 7.238 -0.1237 1.49807e-006 9.37543 -3.74812e-006 1.7069 20.075 5.0056 -8.36795 -4.91477 29.0957 13.6458 -0.047 -4.849 -100.074 5.62101 -53.2473 28.3255 -0.9759 2.2888 -41.9557 16.9124 -60.0706 22.1583 -0.53 10.8316 -31.1736 -34.2722 8.22798 0.786 0.112 2.5817 1.59028e-015 -3.18055e-015 3.18055e-015 0.3601 -0.878 4.2331 -2.06735e-006 -1.15668e-006 6.18448e-008 1.8127 -1.216 2.2227 3.18055e-015 3.18055e-015 -3.18055e-015 0.9571 1.114 1.7695 0 0 -0 4.1246 0.487 4.1451 6.36111e-015 -3.18055e-015 9.54166e-015 3.4052 -1.454 2.7682 -2.06735e-006 -1.15668e-006 6.18448e-008 1.4531 -1.795 1.2713 1.59028e-015 3.18055e-015 -0 5.6954 0.21 2.1184 6.36111e-015 -3.18055e-015 9.54166e-015 3.9766 -1.54 2.3863 -2.06735e-006 -1.15668e-006 6.18448e-008 1.4042 -1.926 1.125 1.59028e-015 3.18055e-015 -0 2.0956 0.66 -0.3894 0 0 -0 5.0395 -0.09 2.4971 6.36111e-015 -3.18055e-015 9.54166e-015 3.7921 -1.552 1.4806 -2.06735e-006 -1.15668e-006 6.18448e-008 1.4655 -1.808 0.9609 1.59028e-015 3.18055e-015 -0 4.9141 -1.269 0.3591 6.36111e-015 -3.18055e-015 9.54166e-015 3.1477 -1.685 0.8462 -2.06735e-006 -1.15668e-006 6.18448e-008 0.8055 -1.585 0.7955 1.59028e-015 3.18055e-015 -0 -1.7069 20.075 5.0056 -36.5351 -1.67305 4.18401 -13.6458 -0.047 -4.849 -2.7275 -22.1536 70.3893 -28.3255 -0.9759 2.2888 123.084 -52.4959 102.437 -22.1583 -0.53 10.8316 -25.9138 -2.67405 -7.20933 -0.786 0.112 2.5817 -5.96354e-016 6.36111e-015 4.96962e-016 -0.3601 -0.878 4.2331 -1.98785e-016 0 -1.98785e-016 -1.8127 -1.216 2.2227 -3.97569e-016 0 3.97569e-016 -0.9571 1.114 1.7695 -3.97569e-016 6.36111e-015 5.96354e-016 -4.1246 0.487 4.1451 1.98785e-015 0 1.88845e-015 -3.4052 -1.454 2.7682 -3.97569e-016 0 7.95139e-016 -1.4531 -1.795 1.2713 -1.98785e-016 0 6.95746e-016 -5.6954 0.21 2.1184 1.98785e-015 0 1.88845e-015 -3.9766 -1.54 2.3863 -3.97569e-016 0 7.95139e-016 -1.4042 -1.926 1.125 -1.98785e-016 0 6.95746e-016 -2.0956 0.66 -0.3894 -3.97569e-016 6.36111e-015 5.96354e-016 -5.0395 -0.09 2.4971 1.98785e-015 0 1.88845e-015 -3.7921 -1.552 1.4806 -3.97569e-016 0 7.95139e-016 -1.4655 -1.808 0.9609 -1.98785e-016 0 6.95746e-016 -4.9141 -1.269 0.3592 1.98785e-015 0 1.88845e-015 -3.1477 -1.685 0.8462 -3.97569e-016 0 7.95139e-016 -0.8055 -1.585 0.7955 -1.98785e-016 0 6.95746e-016 8.367 -8.2066 0.5982 47.1884 -88.8043 62.9572 2.1923 -43.463 -0.4932 172.32 47.068 -168.116 0.7333 -45.8593 -2.6451 20.0805 65.7958 3.75838 -8.367 -8.2066 0.5982 -168.24 -85.7638 -179.577 -2.1923 -43.463 -0.4931 -171.779 46.0419 166.643 -0.7333 -45.8593 -2.6451 14.8942 69.4238 -22.8913 
-47.8171 32.2977 22.098 -42.0002 -0.000282455 96.995 3.55271e-015 -1.186 -1.5018 -0.562221 8.3472 -0.279008 0 9.964 0.2134 -1.10068 16.6967 -0.48201 -1.77636e-015 13.134 -3.2573 -1.10069 16.6967 -0.481987 1.77636e-015 20.686 -1.6905 -16.448 -42.7413 13.6692 -1.77636e-015 7.238 -0.1237 -9.90922e-006 9.73105 3.531e-006 1.7069 20.075 5.0056 -8.30714 -4.86211 28.8044 13.6458 -0.047 -4.849 -100.074 5.62102 -53.2473 28.3255 -0.9759 2.2888 -41.8767 16.3998 -59.7397 22.1583 -0.53 10.8316 -31.3339 -33.9487 8.24219 0.786 0.112 2.5817 -4.77083e-015 9.54166e-015 -0 0.3601 -0.878 4.2331 1.61199e-006 -4.563e-007 2.00335e-007 1.8127 -1.216 2.2227 -4.00671e-007 5.24774e-007 3.22399e-006 0.9571 1.114 1.7695 1.59028e-015 3.18055e-015 -0 4.1246 0.487 4.1451 -1.59028e-015 -6.36111e-015 3.18055e-015 3.4052 -1.454 2.7682 1.61199e-006 -4.563e-007 2.00335e-007 1.4531 -1.795 1.2713 -4.00671e-007 5.24774e-007 3.22399e-006 5.6954 0.21 2.1184 -1.59028e-015 -6.36111e-015 3.18055e-015 3.9766 -1.54 2.3863 1.61199e-006 -4.563e-007 2.00335e-007 1.4042 -1.926 1.125 -4.00671e-007 5.24774e-007 3.22399e-006 2.0956 0.66 -0.3894 1.59028e-015 3.18055e-015 -0 5.0395 -0.09 2.4971 -1.59028e-015 -6.36111e-015 3.18055e-015 3.7921 -1.552 1.4806 1.61199e-006 -4.563e-007 2.00335e-007 1.4655 -1.808 0.9609 -4.00671e-007 5.24774e-007 3.22399e-006 4.9141 -1.269 0.3591 -1.59028e-015 -6.36111e-015 3.18055e-015 3.1477 -1.685 0.8462 1.61199e-006 -4.563e-007 2.00335e-007 0.8055 -1.585 0.7955 -4.00671e-007 5.24774e-007 3.22399e-006 -1.7069 20.075 5.0056 -36.1659 -1.64294 3.83885 -13.6458 -0.047 -4.849 -2.67452 -22.0157 70.4148 -28.3255 -0.9759 2.2888 122.341 -51.6935 101.43 -22.1583 -0.53 10.8316 -26.2469 -2.78913 -7.27549 -0.786 0.112 2.5817 3.97569e-016 6.36111e-015 2.98177e-016 -0.3601 -0.878 4.2331 -5.51738e-032 6.36111e-015 4.96962e-016 -1.8127 -1.216 2.2227 3.97569e-016 9.54166e-015 9.93923e-017 -0.9571 1.114 1.7695 5.96354e-016 0 3.97569e-016 -4.1246 0.487 4.1451 2.78299e-015 3.18055e-015 1.39149e-015 -3.4052 -1.454 2.7682 -1.98785e-016 0 -7.95139e-016 -1.4531 -1.795 1.2713 -3.97569e-016 0 1.98785e-016 -5.6954 0.21 2.1184 2.78299e-015 3.18055e-015 1.39149e-015 -3.9766 -1.54 2.3863 -1.98785e-016 0 -7.95139e-016 -1.4042 -1.926 1.125 -3.97569e-016 0 1.98785e-016 -2.0956 0.66 -0.3894 5.96354e-016 0 3.97569e-016 -5.0395 -0.09 2.4971 2.78299e-015 3.18055e-015 1.39149e-015 -3.7921 -1.552 1.4806 -1.98785e-016 0 -7.95139e-016 -1.4655 -1.808 0.9609 -3.97569e-016 0 1.98785e-016 -4.9141 -1.269 0.3592 2.78299e-015 3.18055e-015 1.39149e-015 -3.1477 -1.685 0.8462 -1.98785e-016 0 -7.95139e-016 -0.8055 -1.585 0.7955 -3.97569e-016 0 1.98785e-016 8.367 -8.2066 0.5982 47.1884 -88.8043 62.9572 2.1923 -43.463 -0.4932 172.32 47.068 -168.116 0.7333 -45.8593 -2.6451 20.0805 65.7958 3.75838 -8.367 -8.2066 0.5982 -168.24 -85.7638 -179.577 -2.1923 -43.463 -0.4931 -171.779 46.0419 166.643 -0.7333 -45.8593 -2.6451 14.8942 69.4238 -22.8913 
-47.8171 32.2977 22.098 -42.0002 -0.000282455 96.995 3.55271e-015 -1.186 -1.5018 -0.560987 8.2764 -0.275169 1.77636e-015 9.964 0.2134 -1.09881 16.555 -0.474992 0 13.134 -3.2573 -1.09881 16.5551 -0.474986 0 20.686 -1.6905 -16.2992 -42.1859 13.89 -1.77636e-015 7.238 -0.1237 1.53315e-007 10.0867 -1.60084e-006 1.7069 20.075 5.0056 -8.24607 -4.80975 28.513 13.6458 -0.047 -4.849 -100.074 5.621 -53.2473 28.3255 -0.9759 2.2888 -41.7948 15.8876 -59.4089 22.1583 -0.53 10.8316 -31.4936 -33.6252 8.25744 0.786 0.112 2.5817 -4.77083e-015 -3.18055e-015 -0 0.3601 -0.878 4.2331 -4.5732e-007 -1.61195e-006 2.61613e-007 1.8127 -1.216 2.2227 4.77083e-015 -3.18055e-015 3.18055e-015 0.9571 1.114 1.7695 -4.77083e-015 -3.18055e-015 3.18055e-015 4.1246 0.487 4.1451 1.76556e-031 -3.18055e-015 3.18055e-015 3.4052 -1.454 2.7682 -4.5732e-007 -1.61195e-006 2.61613e-007 1.4531 -1.795 1.2713 6.36111e-015 6.36111e-015 3.18055e-015 5.6954 0.21 2.1184 1.76556e-031 -3.18055e-015 3.18055e-015 3.9766 -1.54 2.3863 -4.5732e-007 -1.61195e-006 2.61613e-007 1.4042 -1.926 1.125 6.36111e-015 6.36111e-015 3.18055e-015 2.0956 0.66 -0.3894 -4.77083e-015 -3.18055e-015 3.18055e-015 5.0395 -0.09 2.4971 1.76556e-031 -3.18055e-015 3.18055e-015 3.7921 -1.552 1.4806 -4.5732e-007 -1.61195e-006 2.61613e-007 1.4655 -1.808 0.9609 6.36111e-015 6.36111e-015 3.18055e-015 4.9141 -1.269 0.3591 1.76556e-031 -3.18055e-015 3.18055e-015 3.1477 -1.685 0.8462 -4.5732e-007 -1.61195e-006 2.61613e-007 0.8055 -1.585 0.7955 6.36111e-015 6.36111e-015 3.18055e-015 -1.7069 20.075 5.0056 -35.7964 -1.615 3.49351 -13.6458 -0.047 -4.849 -2.62167 -21.8777 70.4401 -28.3255 -0.9759 2.2888 121.633 -50.8834 100.458 -22.1583 -0.53 10.8316 -26.5803 -2.90379 -7.34234 -0.786 0.112 2.5817 -3.31043e-032 -6.36111e-015 -2.98177e-016 -0.3601 -0.878 4.2331 -2.75139e-007 -8.29045e-007 2.16059e-007 -1.8127 -1.216 2.2227 2.45261e-006 -4.29223e-006 3.98569e-006 -0.9571 1.114 1.7695 -1.32417e-031 -9.54166e-015 -7.95139e-016 -4.1246 0.487 4.1451 2.98177e-015 -6.36111e-015 2.5842e-015 -3.4052 -1.454 2.7682 -2.75139e-007 -8.29045e-007 2.16059e-007 -1.4531 -1.795 1.2713 2.45261e-006 -4.29223e-006 3.98569e-006 -5.6954 0.21 2.1184 2.98177e-015 -6.36111e-015 2.5842e-015 -3.9766 -1.54 2.3863 -2.75139e-007 -8.29045e-007 2.16059e-007 -1.4042 -1.926 1.125 2.45261e-006 -4.29223e-006 3.98569e-006 -2.0956 0.66 -0.3894 -1.32417e-031 -9.54166e-015 -7.95139e-016 -5.0395 -0.09 2.4971 2.98177e-015 -6.36111e-015 2.5842e-015 -3.7921 -1.552 1.4806 -2.75139e-007 -8.29045e-007 2.16059e-007 -1.4655 -1.808 0.9609 2.45261e-006 -4.29223e-006 3.98569e-006 -4.9141 -1.269 0.3592 2.98177e-015 -6.36111e-015 2.5842e-015 -3.1477 -1.685 0.8462 -2.75139e-007 -8.29045e-007 2.16059e-007 -0.8055 -1.585 0.7955 2.45261e-006 -4.29223e-006 3.98569e-006 8.367 -8.2066 0.5982 47.1884 -88.8043 62.9572 2.1923 -43.463 -0.4932 172.32 47.068 -168.116 0.7333 -45.8593 -2.6451 20.0805 65.7958 3.75838 -8.367 -8.2066 0.5982 -168.24 -85.7638 -179.577 -2.1923 -43.463 -0.4931 -171.779 46.0419 166.643 -0.7333 -45.8593 -2.6451 14.8942 69.4238 -22.8913 
